<svg xmlns="http://www.w3.org/2000/svg" viewBox="0 0 100 100">
  <rect width="100" height="100" rx="22" fill="#1e40af"/>
  <g fill="none" stroke="#bfdbfe" stroke-width="6" stroke-linecap="round">
    <circle cx="50" cy="50" r="20"/>
    <line x1="50" y1="30" x2="50" y2="14"/>
    <line x1="50" y1="70" x2="50" y2="86"/>
    <line x1="30" y1="50" x2="14" y2="50"/>
    <line x1="70" y1="50" x2="86" y2="50"/>
    <line x1="36" y1="36" x2="24" y2="24"/>
    <line x1="64" y1="36" x2="76" y2="24"/>
    <line x1="36" y1="64" x2="24" y2="76"/>
    <line x1="64" y1="64" x2="76" y2="76"/>
  </g>
  <g fill="#bfdbfe">
    <circle cx="50" cy="12" r="6"/><circle cx="50" cy="88" r="6"/>
    <circle cx="12" cy="50" r="6"/><circle cx="88" cy="50" r="6"/>
    <circle cx="22" cy="22" r="5"/><circle cx="78" cy="22" r="5"/>
    <circle cx="22" cy="78" r="5"/><circle cx="78" cy="78" r="5"/>
  </g>
</svg>
